<svg id="Layer_1" data-name="Layer 1" xmlns="http://www.w3.org/2000/svg" viewBox="0 0 367.2 79.2"><defs><style>.cls-1{fill:#fff;}</style></defs><title>Interceptor- white</title><path class="cls-1" d="M9.46,73.57H3.54V5.76H9.46Z"/><path class="cls-1" d="M16.09,13.8,51.72,51.13V16.06h5.92V65.49L22,28.15V63.53H16.09Z"/><path class="cls-1" d="M77.28,63.53H71.36V21.48H60.09V16.06H88.55v5.41H77.28Z"/><path class="cls-1" d="M91.63,16.06h25.5v5.41H97.55V34.76h19v5.42h-19V58.12h19.58v5.41H91.63Z"/><path class="cls-1" d="M152.39,63.53h-7.18l-14-20.08h-2.46V63.53h-5.92V16.06H130c4.22,0,8.75.06,12.53,2.2A13.14,13.14,0,0,1,148.8,29.6c0,6.8-4.53,12.47-11.4,13.28Zm-23.61-25h1.89c6,0,12.59-1.13,12.59-8.69s-7.05-8.5-12.91-8.5h-1.57Z"/><path class="cls-1" d="M190,25.13a19.18,19.18,0,0,0-12.53-4.66c-10.64,0-18.76,8.88-18.76,19.39s8.06,19.27,18.64,19.27A19,19,0,0,0,190,54.22v7a25.67,25.67,0,0,1-12.47,3.34,24.57,24.57,0,0,1-24.74-24.49,25,25,0,0,1,25.25-25,22.9,22.9,0,0,1,12,3.21Z"/><path class="cls-1" d="M195.51,16.06H221v5.41H201.43V34.76h19v5.42h-19V58.12H221v5.41h-25.5Z"/><path class="cls-1" d="M232.66,63.53h-5.92V16.06h6.8c14.61,0,19.14,5,19.14,13.73,0,10-7.62,13.85-16.62,13.85h-3.4Zm0-25.18h1.89c6,0,12.59-1.13,12.59-8.69s-7.05-8.31-12.91-8.31h-1.57Z"/><path class="cls-1" d="M269.11,63.53h-5.92V21.48H251.92V16.06h28.46v5.41H269.11Z"/><path class="cls-1" d="M329.86,39.8a24.87,24.87,0,0,1-49.74,0,24.87,24.87,0,0,1,49.74,0Zm-5.92,0c0-10.45-7.81-19.2-19-19.2s-19,8.75-19,19.2a19,19,0,1,0,37.9,0Z"/><path class="cls-1" d="M363.54,63.53h-7.18l-14-20.08h-2.46V63.53H334V16.06h7.18c4.22,0,8.75.06,12.53,2.2A13.14,13.14,0,0,1,360,29.6c0,6.8-4.53,12.47-11.39,13.28Zm-23.61-25h1.89c6,0,12.59-1.13,12.59-8.69s-7.05-8.5-12.91-8.5h-1.57Z"/></svg>