<?xml version="1.0" encoding="utf-8"?>
<!-- Generator: Adobe Illustrator 25.0.1, SVG Export Plug-In . SVG Version: 6.00 Build 0)  -->
<svg version="1.1" id="Layer_1" xmlns="http://www.w3.org/2000/svg" xmlns:xlink="http://www.w3.org/1999/xlink" x="0px" y="0px"
	 viewBox="0 0 612 250" style="enable-background:new 0 0 612 250;" xml:space="preserve">
<style type="text/css">
	.st0{fill:#FFFFFF;}
</style>
<g>
	<g>
		
		<path d="M484.95,25.52c-17.62,42.85-35.25,85.7-52.96,128.78c-0.44-1.75-0.84-3.28-1.21-4.82c-2.41-9.91-4.82-19.82-7.2-29.74
			c-0.11-0.44-0.03-1.05,0.21-1.43c6.67-10.79,13.37-21.56,20.06-32.34c0.16-0.26,0.31-0.54,0.48-0.84
			c-13.33,0.42-30.69,9.14-37.74,27.97c-2.47,6.59-3.25,13.4-2.35,20.38c0.9,7,3.38,13.41,7.43,19.2
			c4.04,5.77,9.2,10.26,15.49,13.62c-2.19,5.34-4.37,10.64-6.57,16.01c-0.27-0.09-0.51-0.15-0.73-0.26
			c-16.94-8.93-27.97-22.63-31.87-41.4c-4.24-20.37,0.89-38.54,14.99-53.91c9.04-9.86,20.36-15.81,33.51-18.19
			c5.89-1.07,11.83-1.24,17.77-0.43c0.59,0.08,0.89-0.12,1.2-0.58c9.21-13.23,18.42-26.45,27.64-39.67c0.56-0.81,1.13-1.61,1.7-2.42
			C484.83,25.48,484.89,25.5,484.95,25.52z" fill="#ffffff"/>
		<path d="M467.11,89.94c2.2-5.36,4.38-10.66,6.62-16.11c1.75,0.99,3.48,1.86,5.11,2.89c15.06,9.54,24.65,23.01,27.78,40.57
			c3.49,19.56-1.56,36.98-14.89,51.77c-8.91,9.89-20.09,15.97-33.15,18.51c-6.05,1.18-12.15,1.41-18.28,0.62
			c-0.69-0.09-1.15,0.03-1.59,0.66c-9.58,13.79-19.18,27.55-28.78,41.32c-0.16,0.23-0.34,0.46-0.64,0.62
			c17.62-42.85,35.25-85.71,52.97-128.82c0.44,1.75,0.82,3.25,1.19,4.75c2.42,9.94,4.84,19.88,7.23,29.83
			c0.11,0.44,0.01,1.05-0.23,1.44c-6.69,10.82-13.4,21.61-20.11,32.41c-0.15,0.24-0.28,0.49-0.43,0.77
			c15.55-0.69,32.5-11.18,38.5-30.12C494.41,122.07,486.46,100.16,467.11,89.94z" fill="#ffffff"/>
	</g>
</g>
<g>
	<path d="M30.16,197.86H12.54V39.7h22.86c30,0,57.89,7.97,57.89,43.63c0,24.33-15.31,41.53-39.64,43.63l50.34,70.9H82.4
		l-47.83-69.43h-4.4V197.86z M30.16,112.9h5.45c19.93,0,40.07-3.77,40.07-28.32c0-26.01-19.09-28.53-40.27-28.53h-5.24V112.9z" fill="#ffffff"/>
</g>
<path d="M135.99,153.75l-14.76,34.72h-14.92l56.45-128.15l54.99,128.15h-15.09l-14.44-34.72H135.99z M162.43,92.11l-20.93,48.99
	h41.37L162.43,92.11z" fill="#ffffff"/>
<path d="M244.68,188.47h-13.63V66.15h20.12c10.54,0,21.41,0.33,30.33,6.49c9.08,6.33,13.79,17.03,13.79,27.9
	c0,9.9-4.06,19.95-11.68,26.28c-8.27,6.81-18.82,8.11-29.04,8.11h-9.9V188.47z M244.68,122.28h9.08c15.09,0,27.9-4.54,27.9-22.06
	c0-19.96-16.06-21.41-31.96-21.41h-5.03V122.28z" fill="#ffffff"/>
<path d="M345.1,188.47h-13.63V78.81h-29.52V66.15h73v12.65H345.1V188.47z" fill="#ffffff"/>
<path d="M542.36,188.47h-13.63V66.15h17.68c23.2,0,44.77,6.16,44.77,33.74c0,18.82-11.84,32.12-30.66,33.74l38.93,54.83h-16.71
	l-36.99-53.69h-3.41V188.47z M542.36,122.77h4.22c15.41,0,30.98-2.92,30.98-21.9c0-20.11-14.76-22.06-31.15-22.06h-4.05V122.77z" fill="#ffffff"/>
</svg>
