<svg xmlns="http://www.w3.org/2000/svg" width="160.46" height="54.27" viewBox="0 0 160.46 54.27"><defs><style>.cls-1{fill:#00a8e2;}.cls-2{fill:#fff;}</style></defs><title>sparc-logo-rgb-reversed</title><g id="Layer_2" data-name="Layer 2"><g id="Home-visual"><path class="cls-1" d="M28.49,17.16c1.53,1.55,3.69,2.1,4.78,1.26l5.21-4a1.36,1.36,0,0,0,.37-1.49h0A4.38,4.38,0,0,0,37.66,11c-1.27-1.28-3-1.89-3.93-1.35l-5.8,3.43C26.73,13.76,27,15.62,28.49,17.16Z"/><path class="cls-1" d="M28.17,23.39c-1.3,1.1-1,3.45.74,5.2l6.67,6.75a4.5,4.5,0,0,0,2.75,1.41h0a2.16,2.16,0,0,0,2.08-1c.87-1.41.26-3.8-1.32-5.4l-5.86-5.93C31.66,22.83,29.41,22.35,28.17,23.39Z"/><path class="cls-1" d="M21.44,22.41c-1.79-1.8-4.68-2.4-6.54-1.3L2.39,28.58A4.67,4.67,0,0,0,0,32H0a4.77,4.77,0,0,0,1.47,4,7,7,0,0,0,9,.71L21.71,28C23.39,26.67,23.23,24.21,21.44,22.41Z"/><path class="cls-1" d="M20.76,15.42c1.49-.81,1.36-2.73-.23-4.33l-8.8-8.85a8,8,0,0,0-3-1.82h0A6,6,0,0,0,5.54.1c-2,.46-2.2,2.27-.46,4l9.63,9.68C16.45,15.55,19.2,16.26,20.76,15.42Z"/><path class="cls-2" d="M86.68,51.58c.07,1.39.95,2,2.32,2s2.27-.67,2.27-1.68c0-2.53-4.94-.95-4.94-4.18,0-1.51,1.47-2.1,2.64-2.1a2.74,2.74,0,0,1,3,1.84l-.74.4A2.11,2.11,0,0,0,89,46.31c-.85,0-1.85.47-1.85,1.38,0,2.45,4.94.87,4.94,4.05,0,1.63-1.14,2.53-3.06,2.53-1.66,0-2.81-.61-3.11-2.28Z"/><path class="cls-2" d="M99.74,50.61l-3.12-4.82h1l2.57,4.09,2.58-4.09h.91l-3.11,4.82v3.46h-.79Z"/><path class="cls-2" d="M109,51.58c.07,1.39,1,2,2.32,2s2.26-.67,2.26-1.68c0-2.53-4.93-.95-4.93-4.18,0-1.51,1.47-2.1,2.63-2.1a2.75,2.75,0,0,1,3,1.84l-.74.4a2.11,2.11,0,0,0-2.22-1.52c-.84,0-1.84.47-1.84,1.38,0,2.45,4.93.87,4.93,4.05,0,1.63-1.13,2.53-3.05,2.53-1.66,0-2.81-.61-3.11-2.28Z"/><path class="cls-2" d="M119,45.79h6v.72h-2.6v7.56h-.78V46.51H119Z"/><path class="cls-2" d="M130,45.79h5.41v.72h-4.62v2.93h4.17v.72h-4.17v3.18h4.86v.73H130Z"/><path class="cls-2" d="M141,45.79h1l2.68,6.93h0l2.68-6.93h1v8.28h-.79V47.3h0l-2.58,6.77h-.53l-2.58-6.77h0v6.77H141Z"/><path class="cls-2" d="M154.52,51.58c.07,1.39.95,2,2.32,2s2.27-.67,2.27-1.68c0-2.53-4.94-.95-4.94-4.18,0-1.51,1.47-2.1,2.64-2.1a2.74,2.74,0,0,1,2.95,1.84l-.74.4a2.11,2.11,0,0,0-2.21-1.52c-.85,0-1.85.47-1.85,1.38,0,2.45,4.93.87,4.93,4.05,0,1.63-1.13,2.53-3,2.53-1.66,0-2.81-.61-3.11-2.28Z"/><path class="cls-2" d="M84.78,9.94l-.06,0-.22,0-2.69.29-3.64.39c-.8.09-.88.18-.88,1V44.09c0,.47.1.57.58.57.9,0,1.8,0,2.69,0h.08c.59,0,.66-.07.66-.66V35.37h.25l1.4.07c1,0,2,.1,3,.12a27.33,27.33,0,0,0,6.53-.39,6,6,0,0,0,4.91-4.37,22,22,0,0,0,.8-6v-.18a36.7,36.7,0,0,0-.57-9,7,7,0,0,0-1.6-3.3,7,7,0,0,0-4.42-2.06c-.52-.09-1.06-.15-1.58-.2l-.71-.09Zm2.49,22.21c-1.27,0-2.53-.09-3.77-.18-.44,0-.87-.08-1.32-.13l-.86-.08V13.45l.33,0a2.42,2.42,0,0,1,.38,0h1.56c1.53,0,3.12,0,4.69,0a12.34,12.34,0,0,1,2.32.28,3.83,3.83,0,0,1,3.18,3.23,19.7,19.7,0,0,1,.4,3.62c0,2.46-.09,4.89-.19,7a5.38,5.38,0,0,1-.93,2.81A4.35,4.35,0,0,1,89.87,32,18.91,18.91,0,0,1,87.27,32.15Z"/><path class="cls-2" d="M113.62,21.27c-1.44,0-2.92,0-4.37.06a17.06,17.06,0,0,0-3.6.47A4.78,4.78,0,0,0,102,25.23a12.14,12.14,0,0,0-.06,6.23,4.61,4.61,0,0,0,3,3.45,10.11,10.11,0,0,0,3.53.63c2.31,0,5,0,7.86-.21a24.67,24.67,0,0,0,3.89-.62c1.08-.24,1.2-.4,1.2-1.59V18c0-.62,0-1.26-.05-1.89a5.66,5.66,0,0,0-2.36-4.45,8.51,8.51,0,0,0-3.53-1.37c-.64-.12-1.3-.2-1.94-.28l-.86-.11h-3.64L109,10l-.36,0-1.55.17c-1,.1-2,.2-3,.32-.42.05-.48.12-.48.55s0,1,0,1.47v.21c0,.65,0,.65.63.65h2.16c1.68,0,3.41,0,5.12,0a13.62,13.62,0,0,1,2.6.29,3.68,3.68,0,0,1,3.28,3.49c0,.86,0,1.74,0,2.59v1a.46.46,0,0,1,0,.21.31.31,0,0,1,0,.08l-.06.17h-3.73Zm-2.75,10.92H110a8.65,8.65,0,0,1-2.14-.33,2.81,2.81,0,0,1-2.09-2.16,5.91,5.91,0,0,1,0-3.13,2.81,2.81,0,0,1,2.38-2,9.75,9.75,0,0,1,1.72-.15h7.16l.37,0v7.22l-.21,0-.83.13c-.62.1-1.26.2-1.9.24C113.31,32.16,112.08,32.19,110.87,32.19Z"/><path class="cls-2" d="M55.75,32.2h-.49c-.58,0-.66.08-.66.67v1.69c0,.51.08.59.55.62l1.84.1c2.19.12,4.45.25,6.68.31a18.82,18.82,0,0,0,5.38-.49c2.19-.57,3.38-1.8,3.65-3.76a22.35,22.35,0,0,0,.1-3.74A4.44,4.44,0,0,0,71,24.1a11,11,0,0,0-2.26-1.29c-1.41-.59-2.85-1.17-4.25-1.72l-2.9-1.17a3.56,3.56,0,0,1-2.48-4.14,2.23,2.23,0,0,1,1.64-2.1,4.69,4.69,0,0,1,1.4-.28l6.49,0h2.84c.32,0,.45-.13.45-.46v-.19c0-.54,0-1.09,0-1.63s-.11-.68-.7-.73l-2.06-.18-.41,0L67.26,10l-.62-.05h-4.3l-.15,0-.36.06-1,.16a16.28,16.28,0,0,0-2.21.43,4.38,4.38,0,0,0-3.48,3.84,15.24,15.24,0,0,0,0,3A6,6,0,0,0,57.41,22a11.13,11.13,0,0,0,3,1.48l.56.21,1.63.63c1.3.49,2.64,1,4,1.56a5.61,5.61,0,0,1,1.77,1.26,3,3,0,0,1,.59,2.32v.3a2.1,2.1,0,0,1-1.84,2.21,16.61,16.61,0,0,1-2.69.26c-2.14,0-4.31,0-6.41,0Z"/><path class="cls-2" d="M151.06,9.94l-.1,0-.3,0c-.31.05-.63.08-.94.12a18,18,0,0,0-1.95.29,5.76,5.76,0,0,0-4.41,3.47,11.38,11.38,0,0,0-.89,3.77c-.11,2.08-.18,4.32-.21,7.06a21.84,21.84,0,0,0,.57,5.33,6,6,0,0,0,3.39,4.56,10.41,10.41,0,0,0,3.41.83,51.06,51.06,0,0,0,10.05-.23c.49-.06.7-.21.78-.57v-2c-.18-.5-.2-.5-.81-.5h-2.12c-1.41,0-2.81,0-4.22,0a26.4,26.4,0,0,1-2.69-.14,4,4,0,0,1-3.82-3,10.23,10.23,0,0,1-.41-2.31c-.07-2-.13-4.3-.08-6.62a16.32,16.32,0,0,1,.46-3.38,3.63,3.63,0,0,1,2.88-2.93,11.79,11.79,0,0,1,2.54-.34c2.61-.05,5.33,0,7.51,0,.47,0,.67-.11.76-.45V11c-.2-.59-.22-.59-.9-.64l-3.1-.26-1.32-.12Z"/><path class="cls-2" d="M132.47,9.94l-.32.06-.78.13a5,5,0,0,0-3.56,1.93,5.55,5.55,0,0,0-.87,3.33V34.57a2.62,2.62,0,0,0,0,.28c0,.43.13.51.56.52h2.63c.75,0,.78,0,.78-.78v-18c0-.27,0-.57,0-.87a2.12,2.12,0,0,1,1.9-2.14,10.7,10.7,0,0,1,1.76-.19c1.05,0,2.1,0,3.16,0h1.54c.44,0,.52-.07.53-.5s0-.62,0-.94v-.89a.49.49,0,0,0-.4-.56,10.67,10.67,0,0,0-1.29-.27c-.63-.08-1.26-.14-1.9-.21l-.77-.08Z"/></g></g></svg>