<svg id="Layer_1" data-name="Layer 1" xmlns="http://www.w3.org/2000/svg" viewBox="0 0 210.5 61.78"><defs><style>.cls-1{fill:#fff;}</style></defs><title>Stealth_wht</title><path class="cls-1" d="M52.94,52.16H47.83V15.84H38.09V11.17H62.67v4.67H52.94Z"/><path class="cls-1" d="M66.58,11.17h22v4.67H71.69V27.31H88.11V32H71.69V47.48H88.6v4.68h-22Z"/><path class="cls-1" d="M100.4,41.88,95.72,52.16H90.23L109.8,9.43l19.57,42.73h-5.49l-4.67-10.28Zm9.4-21.26-7.28,16.59h14.57Z"/><path class="cls-1" d="M137.7,47.48h12.45v4.68H132.59v-41h5.11Z"/><path class="cls-1" d="M162.59,52.16h-5.11V15.84h-9.73V11.17h24.57v4.67h-9.73Z"/><path class="cls-1" d="M200.54,27.7V11.17h5.12v41h-5.12V32.48H181V52.16h-5.11v-41H181V27.7Z"/><path class="cls-1" d="M20.39,59.14C12.22,59.14,5.82,53.85,4,45.62l4.89-1.41c1.1,6,5.7,10.23,11.38,10.23A11.6,11.6,0,0,0,32,43c0-6.76-5.15-9.16-10.13-11.49l-3.59-1.6c-6.1-2.83-11.58-6-11.58-13.8,0-8.89,7.61-13.68,14.77-13.68A15.05,15.05,0,0,1,34.9,10.39l-4,2.61c-2.45-4.1-5.35-5.85-9.6-5.85a9.29,9.29,0,0,0-9.59,9.2c0,5.15,5.1,7.5,8.82,9.22l3.67,1.64C31,30.24,37,33.68,37,42.42A16.52,16.52,0,0,1,20.39,59.14Z"/></svg>